<svg width="920" height="920" viewBox="0 0 243.41666 243.41667" xmlns="http://www.w3.org/2000/svg"
   ><ellipse ry="111.12499" rx="121.33035" cy="119.13801" cx="121.70833" style="fill:#fc9;fill-opacity:1;stroke:none;stroke-width:.25801468;stroke-linecap:butt;stroke-linejoin:miter;stroke-miterlimit:4;stroke-dasharray:none;stroke-opacity:1;paint-order:markers stroke fill"
     /><path d="m18.898809 237.06655 3.85585-82.35713 69.395439 44.51783z" style="fill:#fc9;fill-opacity:1;stroke:none;stroke-width:.23997708;stroke-linecap:butt;stroke-linejoin:miter;stroke-miterlimit:4;stroke-dasharray:none;stroke-opacity:1;paint-order:markers stroke fill"
     /><path style="stroke-width:7.93750238" d="m148.16667 132.29178a15.874999 15.875011.0 0 1 15.8751-15.87512h63.4998a15.874999 15.875011.0 0 1 15.8751 15.87512v95.25007a15.874999 15.875011.0 0 1-15.8751 15.87481h-63.4998a15.874999 15.875011.0 0 1-15.8751-15.87481zm15.8751 3.96869v15.87482a3.9687501 3.9687531.0 0 0 3.9687 3.969h55.5624a3.9687501 3.9687531.0 0 0 3.9687-3.969v-15.87482a3.9687501 3.9687531.0 0 0-3.9687-3.96869h-55.5624a3.9687501 3.9687531.0 0 0-3.9687 3.96869zm0 31.74993v7.9374a3.9687501 3.9687531.0 0 0 3.9687 3.96902h7.9374a3.9687501 3.9687531.0 0 0 3.9687-3.96902v-7.9374a3.9687501 3.9687531.0 0 0-3.9687-3.9687h-7.9374a3.9687501 3.9687531.0 0 0-3.9687 3.9687zm3.9687 19.84382a3.9687501 3.9687531.0 0 0-3.9687 3.9687v7.93741a3.9687501 3.9687531.0 0 0 3.9687 3.969h7.9374a3.9687501 3.9687531.0 0 0 3.9687-3.969v-7.93741a3.9687501 3.9687531.0 0 0-3.9687-3.9687zm-3.9687 27.78123v7.9374a3.9687501 3.9687531.0 0 0 3.9687 3.969h7.9374a3.9687501 3.9687531.0 0 0 3.9687-3.969v-7.9374a3.9687501 3.9687531.0 0 0-3.9687-3.96872h-7.9374a3.9687501 3.9687531.0 0 0-3.9687 3.96872zm27.7812-51.59375a3.9687501 3.9687531.0 0 0-3.9687 3.9687v7.9374a3.9687501 3.9687531.0 0 0 3.9687 3.96902h7.9374a3.9687501 3.9687531.0 0 0 3.9687-3.96902v-7.9374a3.9687501 3.9687531.0 0 0-3.9687-3.9687zm-3.9687 27.78122v7.93741a3.9687501 3.9687531.0 0 0 3.9687 3.969h7.9374a3.9687501 3.9687531.0 0 0 3.9687-3.969v-7.93741a3.9687501 3.9687531.0 0 0-3.9687-3.9687h-7.9374a3.9687501 3.9687531.0 0 0-3.9687 3.9687zm3.9687 19.84381a3.9687501 3.9687531.0 0 0-3.9687 3.96872v7.9374a3.9687501 3.9687531.0 0 0 3.9687 3.969h7.9374a3.9687501 3.9687531.0 0 0 3.9687-3.969v-7.9374a3.9687501 3.9687531.0 0 0-3.9687-3.96872zm19.8438-43.65633v7.9374a3.9687501 3.9687531.0 0 0 3.9687 3.96902h7.9374a3.9687501 3.9687531.0 0 0 3.9687-3.96902v-7.9374a3.9687501 3.9687531.0 0 0-3.9687-3.9687h-7.9374a3.9687501 3.9687531.0 0 0-3.9687 3.9687zm3.9687 19.84382a3.9687501 3.9687531.0 0 0-3.9687 3.9687v31.74993a3.9687501 3.9687531.0 0 0 3.9687 3.969h7.9374a3.9687501 3.9687531.0 0 0 3.9687-3.969v-31.74993a3.9687501 3.9687531.0 0 0-3.9687-3.9687z"
     /><path d="m89.787402 4.3157464c-5.754332-5.7543285-15.08031-5.7543285-20.834642.0L40.151342 33.127074 79.370078 72.355715 118.59868 33.127074 89.777478 4.3157464zM125.60309 40.141401 86.394335 79.37004l39.228595 39.22864L154.43426 89.777439c5.75432-5.754328 5.75432-15.070384.0-20.814793L125.62293 40.141401zm-7.00441 85.461689-39.228602-39.2088-39.228658 39.22865 28.821258 28.81132c5.754332 5.75432 15.070392 5.75432 20.8148.0L118.59868 125.62294zM33.13701 118.59868 72.345828 79.37004 33.127086 40.141401 4.3157499 68.962646c-5.7543331 5.754327-5.7543331 15.070386.0 20.814791L33.127086 118.59868z" style="stroke-width:9.92124" id="path969" /><path style="fill:none;fill-opacity:1;stroke:#fff;stroke-width:7.93752;stroke-linecap:round;stroke-linejoin:round;stroke-miterlimit:4;stroke-dasharray:none;stroke-opacity:1;paint-order:normal" d="m62.706277 32.877984 33.66378-.334233"
     /><path style="fill:none;fill-opacity:1;stroke:#fff;stroke-width:7.93752;stroke-linecap:round;stroke-linejoin:round;stroke-miterlimit:4;stroke-dasharray:none;stroke-opacity:1;paint-order:normal" d="m79.375034 15.875002.33423 33.66376"
     /><path style="fill:none;fill-opacity:1;stroke:#fff;stroke-width:7.93752;stroke-linecap:round;stroke-linejoin:round;stroke-miterlimit:4;stroke-dasharray:none;stroke-opacity:1;paint-order:normal" d="M16.668754 80.502981 50.332532 80.168748"
     /><path style="fill:none;fill-opacity:1;stroke:#fff;stroke-width:7.93752;stroke-linecap:round;stroke-linejoin:round;stroke-miterlimit:4;stroke-dasharray:none;stroke-opacity:1;paint-order:normal" d="m115.09373 67.468751 24.04023 23.567532"
     /><path style="fill:none;fill-opacity:1;stroke:#fff;stroke-width:7.93752;stroke-linecap:round;stroke-linejoin:round;stroke-miterlimit:4;stroke-dasharray:none;stroke-opacity:1;paint-order:normal" d="M138.66287 67.336575 115.09532 91.376781"
     /><path style="fill:none;fill-opacity:1;stroke:#fff;stroke-width:7.93752;stroke-linecap:round;stroke-linejoin:round;stroke-miterlimit:4;stroke-dasharray:none;stroke-opacity:1;paint-order:normal" d="m62.706277 126.54049 33.66378-.33424"
     /><ellipse style="fill:#fff;fill-opacity:1;stroke:none;stroke-width:23.8126;stroke-linecap:round;stroke-linejoin:round;stroke-miterlimit:4;stroke-dasharray:none;stroke-opacity:1;paint-order:normal" cx="79.375031" cy="109.53748" rx="4.7625027" ry="4.7624998" /><ellipse style="fill:#fff;fill-opacity:1;stroke:none;stroke-width:23.8126;stroke-linecap:round;stroke-linejoin:round;stroke-miterlimit:4;stroke-dasharray:none;stroke-opacity:1;paint-order:normal" cx="79.375031" cy="142.87498" rx="4.7625027" ry="4.7624998" /></svg>