<svg width="1e3" height="1e3" fill="currentcolor" viewBox="0 0 1e3 1e3" xmlns="http://www.w3.org/2000/svg"><path d="m565.5897 27.185788c-36.24773-36.2477375-94.99406-36.2477375-131.2418.0L252.92174 208.67446 499.9688 455.78403 747.07837 208.67446 565.5272 27.185788zM791.20062 252.85921 544.21604 499.96877 791.32561 747.07835 972.81429 565.52718c36.24761-36.24773 36.24761-94.93157.0-131.11681L791.32561 252.85921zM747.07837 791.2006 499.9688 544.21602 252.85925 791.32559 434.4104 972.81425c36.24773 36.24765 94.93157 36.24765 131.1168.0L747.07837 791.32559zM208.73698 747.07835 455.72157 499.96877 208.67449 252.85921 27.185821 434.41037c-36.2477383 36.24773-36.2477383 94.93158.0 131.11681L208.67449 747.07835z" style="stroke-width:62.4961"/><path style="fill:none;fill-opacity:1;stroke:#fff;stroke-width:50;stroke-linecap:round;stroke-linejoin:round;stroke-miterlimit:4;stroke-dasharray:none;stroke-opacity:1;paint-order:normal" d="M395 207.1054 607.05519 205"/><path style="fill:none;fill-opacity:1;stroke:#fff;stroke-width:50;stroke-linecap:round;stroke-linejoin:round;stroke-miterlimit:4;stroke-dasharray:none;stroke-opacity:1;paint-order:normal" d="m5e2 1e2 2.1054 212.05518"/><path style="fill:none;fill-opacity:1;stroke:#fff;stroke-width:50;stroke-linecap:round;stroke-linejoin:round;stroke-miterlimit:4;stroke-dasharray:none;stroke-opacity:1;paint-order:normal" d="M105 507.1054 317.05519 505"/><path style="fill:none;fill-opacity:1;stroke:#fff;stroke-width:50;stroke-linecap:round;stroke-linejoin:round;stroke-miterlimit:4;stroke-dasharray:none;stroke-opacity:1;paint-order:normal" d="M725 425 876.4344 573.45692"/><path style="fill:none;fill-opacity:1;stroke:#fff;stroke-width:50;stroke-linecap:round;stroke-linejoin:round;stroke-miterlimit:4;stroke-dasharray:none;stroke-opacity:1;paint-order:normal" d="M873.4669 424.16738 725.00999 575.60178"/><path style="fill:none;fill-opacity:1;stroke:#fff;stroke-width:50;stroke-linecap:round;stroke-linejoin:round;stroke-miterlimit:4;stroke-dasharray:none;stroke-opacity:1;paint-order:normal" d="M395 797.1054 607.05519 795"/><circle style="fill:#fff;fill-opacity:1;stroke:none;stroke-width:150;stroke-linecap:round;stroke-linejoin:round;stroke-miterlimit:4;stroke-dasharray:none;stroke-opacity:1;paint-order:normal" cx="500" cy="690" r="30"/><circle style="fill:#fff;fill-opacity:1;stroke:none;stroke-width:150;stroke-linecap:round;stroke-linejoin:round;stroke-miterlimit:4;stroke-dasharray:none;stroke-opacity:1;paint-order:normal" cx="500" cy="900" r="30"/></svg>