<svg version="1.0" xmlns="http://www.w3.org/2000/svg" width="700pt" height="700pt" viewBox="0 0 700 700"><g transform="translate(0.000000,700.000000) scale(0.100000,-0.100000)" fill="#000" stroke="none"><path d="M2170 6984c-30-8-75-26-1e2-41-26-15-227-207-480-459l-435-434 565-565 565-565 562 562 563 563-437 437c-464 464-486 483-601 507-70 15-135 13-202-5zm168-344c55-34 62-66 62-277v-188l197 3c194 4 199 3 233-20 63-43 70-123 15-178-25-25-27-25-233-30l-207-5v-190c0-104-1-198-3-207-1-9-14-30-28-47-47-57-137-50-175 13-16 27-19 52-19 182 0 83-3 172-6 198l-7 46h-194c-214 0-240 6-268 60-19 37-19 73 1 111 26 52 61 59 274 59h190v2e2c0 224 6 251 63 275 44 19 67 18 105-5z"/><path d="M509 5403C34 4926 30 4922 7 4786c-14-81-1-169 37-253 24-50 84-115 469-501l442-442 562 562 563 563-562 562c-310 310-565 563-568 563s-202-197-441-437zm991-608c76-40 78-160 2-199-22-11-126-14-550-17l-524-4-29 33c-41 46-41 108 0 154l29 33 324 5c676 11 717 11 748-5z"/><path d="M3045 5280l-560-560 565-565 565-565 437 437c399 4e2 440 444 468 504 40 87 53 165 39 249-21 137-19 135-502 618-243 243-444 442-447 442s-257-252-565-560zm990-114c44-19 69-66 62-119-5-34-23-56-141-177-75-76-136-140-136-144 0-3 61-65 136-138 146-142 155-154 156-198 2-69-47-120-116-120-33 0-50 12-164 119-70 65-138 130-151 145l-25 26-151-150c-148-146-152-150-194-150-36 0-49 6-77 34-29 29-34 41-34 82v47l148 149 147 149-147 143c-144 138-148 144-148 184 0 77 40 122 110 122 48 0 66-13 208-153l132-132 138 136c75 75 146 142 157 148 27 14 49 14 90-3z"/><path d="M1715 3950l-560-560 440-440c482-483 489-489 625-510 81-12 158-1 243 36 56 25 101 67 505 468l442 441-562 562c-310 310-565 563-568 563s-257-252-565-560zm607 30c20-6 48-24 62-41 95-112-26-273-157-210-52 25-77 65-77 121 0 55 25 95 75 120 46 23 48 23 97 10zm521-520c61-48 51-152-18-188-26-13-99-16-546-20l-516-5-32 30c-25 22-34 39-38 74-4 38-1 50 22 77 15 17 41 36 58 41 18 5 260 10 538 10 496 1 507 1 532-19zm-509-444c41-17 74-58 82-101 25-133-141-212-233-111-28 30-33 43-33 83 0 59 25 103 71 126 42 20 70 21 113 3z"/><path d="M4568 3626c-112-39-205-121-257-223-53-106-51-46-51-1573 0-1545-2-1484 57-1593 59-107 186-202 306-227 36-7 356-10 1037-8l985 3 57 23c123 50 219 146 271 272l22 55 3 1435c2 1044 0 1451-8 1495-31 162-153 297-311 346-58 18-107 19-1052 19h-992l-67-24zm1917-448c51-23 55-45 55-323 0-286-4-305-65-331-51-21-1639-21-1690 0-61 26-65 44-65 337v261l34 34 34 34h836c626 0 842-3 861-12zm-1349-932 34-34v-157-157l-34-34-34-34h-157-157l-34 34-34 34v157 157l34 34 34 34h157 157l34-34zm665 18c47-24 59-66 59-209 0-214-11-225-223-225-224 0-237 12-237 223 0 214 13 227 228 227 110 0 150-4 173-16zm705-18 34-34v-157-157l-34-34-34-34h-157-157l-34 34-34 34v157 157l34 34 34 34h157 157l34-34zm-1401-660c56-24 65-55 65-223 0-212-11-223-225-223-212 0-225 14-225 230s12 229 223 230c88 0 138-4 162-14zm680 0c62-26 75-62 75-214 0-216-16-232-232-232-207 0-228 22-228 232 0 203 25 228 228 228 84 0 133-5 157-14zm689 0c69-29 66-6 66-559V528l-34-34-34-34h-157-157l-34 34-34 34v491c0 544-1 539 63 566 44 20 275 20 321 1zM5136 876l34-34V685 528l-34-34-34-34h-157-157l-34 34-34 34v157 157l34 34 34 34h157 157l34-34zm672 18c44-30 52-64 52-209 0-217-8-225-230-225-220 0-230 10-230 224 0 138 8 170 48 203 25 22 36 23 182 23 125 0 160-3 178-16z"/></g></svg>