<?xml version="1.0" standalone="no"?>
<!DOCTYPE svg PUBLIC "-//W3C//DTD SVG 20010904//EN"
 "http://www.w3.org/TR/2001/REC-SVG-20010904/DTD/svg10.dtd">
<svg version="1.0" xmlns="http://www.w3.org/2000/svg"
 width="700.000000pt" height="700.000000pt" viewBox="0 0 700.000000 700.000000"
 preserveAspectRatio="xMidYMid meet">
<metadata>
Created by potrace 1.14, written by Peter Selinger 2001-2017
</metadata>
<g transform="translate(0.000000,700.000000) scale(0.100000,-0.100000)"
fill="#000000" stroke="none">
<path d="M2170 6984 c-30 -8 -75 -26 -100 -41 -26 -15 -227 -207 -480 -459
l-435 -434 565 -565 565 -565 562 562 563 563 -437 437 c-464 464 -486 483
-601 507 -70 15 -135 13 -202 -5z m168 -344 c55 -34 62 -66 62 -277 l0 -188
197 3 c194 4 199 3 233 -20 63 -43 70 -123 15 -178 -25 -25 -27 -25 -233 -30
l-207 -5 0 -190 c0 -104 -1 -198 -3 -207 -1 -9 -14 -30 -28 -47 -47 -57 -137
-50 -175 13 -16 27 -19 52 -19 182 0 83 -3 172 -6 198 l-7 46 -194 0 c-214 0
-240 6 -268 60 -19 37 -19 73 1 111 26 52 61 59 274 59 l190 0 0 200 c0 224 6
251 63 275 44 19 67 18 105 -5z"/>
<path d="M509 5403 c-475 -477 -479 -481 -502 -617 -14 -81 -1 -169 37 -253
24 -50 84 -115 469 -501 l442 -442 562 562 563 563 -562 562 c-310 310 -565
563 -568 563 -3 0 -202 -197 -441 -437z m991 -608 c76 -40 78 -160 2 -199 -22
-11 -126 -14 -550 -17 l-524 -4 -29 33 c-41 46 -41 108 0 154 l29 33 324 5
c676 11 717 11 748 -5z"/>
<path d="M3045 5280 l-560 -560 565 -565 565 -565 437 437 c399 400 440 444
468 504 40 87 53 165 39 249 -21 137 -19 135 -502 618 -243 243 -444 442 -447
442 -3 0 -257 -252 -565 -560z m990 -114 c44 -19 69 -66 62 -119 -5 -34 -23
-56 -141 -177 -75 -76 -136 -140 -136 -144 0 -3 61 -65 136 -138 146 -142 155
-154 156 -198 2 -69 -47 -120 -116 -120 -33 0 -50 12 -164 119 -70 65 -138
130 -151 145 l-25 26 -151 -150 c-148 -146 -152 -150 -194 -150 -36 0 -49 6
-77 34 -29 29 -34 41 -34 82 l0 47 148 149 147 149 -147 143 c-144 138 -148
144 -148 184 0 77 40 122 110 122 48 0 66 -13 208 -153 l132 -132 138 136 c75
75 146 142 157 148 27 14 49 14 90 -3z"/>
<path d="M1715 3950 l-560 -560 440 -440 c482 -483 489 -489 625 -510 81 -12
158 -1 243 36 56 25 101 67 505 468 l442 441 -562 562 c-310 310 -565 563
-568 563 -3 0 -257 -252 -565 -560z m607 30 c20 -6 48 -24 62 -41 95 -112 -26
-273 -157 -210 -52 25 -77 65 -77 121 0 55 25 95 75 120 46 23 48 23 97 10z
m521 -520 c61 -48 51 -152 -18 -188 -26 -13 -99 -16 -546 -20 l-516 -5 -32 30
c-25 22 -34 39 -38 74 -4 38 -1 50 22 77 15 17 41 36 58 41 18 5 260 10 538
10 496 1 507 1 532 -19z m-509 -444 c41 -17 74 -58 82 -101 25 -133 -141 -212
-233 -111 -28 30 -33 43 -33 83 0 59 25 103 71 126 42 20 70 21 113 3z"/>
<path d="M4568 3626 c-112 -39 -205 -121 -257 -223 -53 -106 -51 -46 -51
-1573 0 -1545 -2 -1484 57 -1593 59 -107 186 -202 306 -227 36 -7 356 -10
1037 -8 l985 3 57 23 c123 50 219 146 271 272 l22 55 3 1435 c2 1044 0 1451
-8 1495 -31 162 -153 297 -311 346 -58 18 -107 19 -1052 19 l-992 0 -67 -24z
m1917 -448 c51 -23 55 -45 55 -323 0 -286 -4 -305 -65 -331 -51 -21 -1639 -21
-1690 0 -61 26 -65 44 -65 337 l0 261 34 34 34 34 836 0 c626 0 842 -3 861
-12z m-1349 -932 l34 -34 0 -157 0 -157 -34 -34 -34 -34 -157 0 -157 0 -34 34
-34 34 0 157 0 157 34 34 34 34 157 0 157 0 34 -34z m665 18 c47 -24 59 -66
59 -209 0 -214 -11 -225 -223 -225 -224 0 -237 12 -237 223 0 214 13 227 228
227 110 0 150 -4 173 -16z m705 -18 l34 -34 0 -157 0 -157 -34 -34 -34 -34
-157 0 -157 0 -34 34 -34 34 0 157 0 157 34 34 34 34 157 0 157 0 34 -34z
m-1401 -660 c56 -24 65 -55 65 -223 0 -212 -11 -223 -225 -223 -212 0 -225 14
-225 230 0 216 12 229 223 230 88 0 138 -4 162 -14z m680 0 c62 -26 75 -62 75
-214 0 -216 -16 -232 -232 -232 -207 0 -228 22 -228 232 0 203 25 228 228 228
84 0 133 -5 157 -14z m689 0 c69 -29 66 -6 66 -559 l0 -499 -34 -34 -34 -34
-157 0 -157 0 -34 34 -34 34 0 491 c0 544 -1 539 63 566 44 20 275 20 321 1z
m-1338 -710 l34 -34 0 -157 0 -157 -34 -34 -34 -34 -157 0 -157 0 -34 34 -34
34 0 157 0 157 34 34 34 34 157 0 157 0 34 -34z m672 18 c44 -30 52 -64 52
-209 0 -217 -8 -225 -230 -225 -220 0 -230 10 -230 224 0 138 8 170 48 203 25
22 36 23 182 23 125 0 160 -3 178 -16z"/>
</g>
</svg>
